<?xml version="1.0"?><svg xmlns="http://www.w3.org/2000/svg" xmlns:xlink="http://www.w3.org/1999/xlink" version="1.1" viewBox="0 0 512 512" style="enable-background:new 0 0 512 512;" xml:space="preserve"><g id="_x33_8_x2C__Jet_Ski_x2C__Watercraft_x2C__Ski_x2C__Jet_x2C__Sea_Scooter"><g><path d="M301.003,116.031h-6.986l-27.492-18.329c-1.636-1.091-3.558-1.673-5.525-1.673h-30.002c-5.5,0-9.96,4.46-9.96,9.96    c0,5.501,4.46,9.96,9.96,9.96h26.987l20.669,13.78l-16.079,38.588c-17.141,41.139-57.014,67.721-101.583,67.721h-10.042v-10.163    c0-21.968-17.873-39.84-39.84-39.84H40.985c-5.501,0-9.96,4.46-9.96,9.96v41.301c-17.232,4.437-30.002,20.108-30.002,38.706    v50.003c0,1.905,0.593,3.809,1.513,5.279l41.191,65.906c7.351,11.76,20.019,18.781,33.887,18.781h261.586    c65.926,0,134.932-28.491,170.051-84.366c1.176-1.75,1.724-3.717,1.724-5.6C510.977,209.55,416.061,116.031,301.003,116.031z     M484.386,276.042h-53.374c-24.185,0-44.418-17.243-49.049-40.083h86.364C475.124,248.539,480.547,261.966,484.386,276.042z     M20.943,316.045v-40.043c0-11.051,8.991-20.043,20.043-20.043c24.543,0,92.975,0,120.008,0c52.636,0,99.727-31.395,119.97-79.98    l16.679-40.028h3.361c63.85,0,120.439,31.654,154.918,80.087h-84.914c-5.5,0-9.96,4.46-9.96,9.96    c0,38.578,31.386,69.963,69.964,69.963h57.661c1.051,6.59,1.774,13.288,2.126,20.083H20.943z"/></g></g><g id="Layer_1"/></svg>